# xmcd
#
# Track frame offsets:
#  225
#  15806
#  29531
#  44906
#  57430
#  75880
#  92150
#  110832
#  130043
#  145494
#  160366
#
# Disc length: 2336 seconds
#
# Revision: 0
# Processed by: cddbd v1.5.1PL2 Copyright (c) Steve Scherf et al.
# Submitted via: Collectorz.com Music Collector 6.9
#
DISCID=92091d0b
DTITLE=Billy and the flying Boys - Let's work together
DYEAR=2004
DGENRE=General Blues - General Pop
TTITLE0=Teenager in Love
TTITLE1=Jailhouse Rock
TTITLE2=Penny Lane
TTITLE3=Lies
TTITLE4=Singing the Blues
TTITLE5=Brown Sugar
TTITLE6=On the Beach
TTITLE7=Have you ever seen the Rain
TTITLE8=C'est la vie
TTITLE9=I saw her standing there
TTITLE10=Let's work together
EXTD=
EXTT0=
EXTT1=
EXTT2=
EXTT3=
EXTT4=
EXTT5=
EXTT6=
EXTT7=
EXTT8=
EXTT9=
EXTT10=
PLAYORDER=
